<svg xmlns="http://www.w3.org/2000/svg" viewBox="0 0 32 32">
  <!-- our thread, running behind their file -->
  <rect x="1.5" y="14.3" width="9" height="5.4" rx="2.7" fill="#F0A33A"/>
  <!-- their skill: a file, with the fold that says so -->
  <path d="M7.5 3.5h11.2L26 10.8V28a2.5 2.5 0 0 1-2.5 2.5H10A2.5 2.5 0 0 1 7.5 28z" fill="#fff"/>
  <g fill="none" stroke="#3FA7B5" stroke-width="2.6" stroke-linejoin="round" stroke-linecap="round">
    <path d="M7.5 6A2.5 2.5 0 0 1 10 3.5h8.7L26 10.8V28a2.5 2.5 0 0 1-2.5 2.5H10A2.5 2.5 0 0 1 7.5 28z"/>
    <path d="M18.4 3.8v7h7"/>
  </g>
  <!-- the same thread, now woven into it -->
  <rect x="12" y="14.3" width="18.5" height="5.4" rx="2.7" fill="#F0A33A"/>
  <rect x="12" y="24.2" width="9.5" height="2.8" rx="1.4" fill="#3FA7B5"/>
</svg>
